<svg width="50" height="50" viewBox="0 0 50 50" fill="none" xmlns="http://www.w3.org/2000/svg">
<path d="M19.5032 1.32646L19.5021 1.32662C14.1562 2.11032 9.60109 4.87657 6.63409 9.11219L6.63304 9.1137C4.54894 12.0795 3.51361 15.3798 3.50377 19.0406C3.50395 22.1127 4.0366 24.2531 5.67963 27.5921C7.4472 31.1529 8.38577 33.9341 8.97926 37.3792L8.97961 37.3812C9.35418 39.5774 9.415 40.6968 9.415 44.8105C9.415 45.8951 9.42261 46.9225 9.43398 47.7012C9.43967 48.0911 9.44625 48.4152 9.45317 48.6515C9.45447 48.696 9.45574 48.735 9.45694 48.7689H20.4956H31.5151V45.8367V42.1913V40.9727L32.7336 40.9603L35.6179 40.931L38.2391 40.9045L38.8487 40.6122L38.8527 40.6103C39.7206 40.198 40.2806 39.6501 40.6948 38.8271C40.6954 38.8261 40.6959 38.825 40.6964 38.824L40.9459 38.3196L40.9731 36.0489L41.0037 33.4981L41.0178 32.3223L42.193 32.2825L43.9239 32.2239C43.924 32.2239 43.9241 32.2239 43.9243 32.2239C45.3084 32.1751 45.5301 32.1221 45.6441 32.0776C45.7408 32.0322 45.8976 31.9296 46.0624 31.7749C46.2366 31.6114 46.3408 31.4636 46.3783 31.3873L46.3849 31.3738L46.388 31.3679C46.3876 31.3678 46.4016 31.3349 46.4205 31.2582C46.4424 31.1698 46.4626 31.0572 46.4767 30.9319C46.4983 30.7395 46.4993 30.5766 46.4923 30.4687C46.4734 30.4335 46.4496 30.3901 46.4203 30.3381C46.3146 30.1499 46.1599 29.8875 45.9639 29.5651C45.5733 28.9224 45.0353 28.0689 44.4348 27.1495L44.4335 27.1475C43.839 26.2335 43.2642 25.3329 42.8176 24.6183C42.3967 23.9448 42.0324 23.3472 41.9172 23.1041L41.9154 23.1002C41.3117 21.8152 41.1015 20.7203 40.9952 18.7439C40.8862 16.7284 40.7927 16.0619 40.4115 14.5998L40.4111 14.5981C39.6444 11.6392 38.1218 9.02525 35.8008 6.70739C33.0428 3.96195 29.9397 2.31435 25.9469 1.50053L25.942 1.49952C24.9823 1.29982 24.611 1.27088 22.5876 1.24178L22.5836 1.24171C20.9211 1.21237 20.0547 1.24511 19.5032 1.32646ZM46.5477 30.5783C46.5481 30.5788 46.5455 30.5726 46.5388 30.5586C46.5439 30.5709 46.5472 30.5779 46.5477 30.5783Z" fill="#FFFFFC" stroke="#242423" stroke-width="2.46212"/>
<path d="M18.5313 10.4777C18.8403 8.37397 20.2758 5.56559 21.4521 4.76031C21.6914 4.59926 21.9505 4.50867 22.2097 4.50867C22.5786 4.50867 22.6783 4.57913 23.3162 5.23341C24.5524 6.50171 25.4495 8.44443 25.8084 10.5784L25.8682 10.9609L26.1872 10.7294C27.7922 9.51142 29.9254 8.73634 31.66 8.73634C33.0456 8.73634 33.3347 8.98799 33.3347 10.2362C33.3347 11.9272 32.6967 13.8699 31.6002 15.5208C31.341 15.9033 31.1516 16.2254 31.1615 16.2354C31.1815 16.2455 31.5703 16.326 32.0388 16.4267C33.9328 16.8293 35.5577 17.6447 36.744 18.7821C37.3222 19.3458 37.4418 19.5169 37.4916 19.8592C37.5514 20.3826 37.3022 20.7651 36.3751 21.5502C35.5776 22.2347 34.0524 23.0198 32.936 23.3319C29.4569 24.3083 25.5991 23.815 22.9773 22.0736L22.1499 21.5301L21.5817 21.9227C17.4048 24.8015 10.4767 24.3485 7.34651 20.9865C6.89793 20.5134 6.81818 20.3624 6.81818 20.0403C6.81818 19.527 7.14714 19.0539 7.93466 18.4197C9.12093 17.4735 10.4866 16.8394 12.2212 16.4468L13.1881 16.2254L12.8492 15.7422C11.6928 14.0914 11.005 12.048 11.005 10.2362C11.005 9.35036 11.015 9.3101 11.314 9.01819L11.6131 8.70615L12.8293 8.76654C13.7763 8.8068 14.2348 8.87726 14.8928 9.08865C15.8697 9.40069 17.0859 10.0046 17.8933 10.5583L18.4615 10.9408L18.5313 10.4777Z" fill="url(#paint0_linear_4239_272)"/>
<path d="M14.441 10.7074C15.6371 11.156 16.4344 11.6276 17.6419 12.6168L18.5759 13.3644L18.7582 14.5836C18.8607 15.2507 19.0202 16.0443 19.1113 16.3664L19.2821 16.93L18.5417 16.723C18.1317 16.6079 17.3571 16.4584 16.8331 16.3779C15.9105 16.2514 15.8535 16.2284 15.4093 15.7453C13.9968 14.1925 12.983 12.2717 12.6641 10.5579L12.5957 10.1783L13.0286 10.2589C13.2564 10.2934 13.8943 10.5004 14.441 10.7074ZM31.8602 10.5348C31.4729 12.3176 30.573 14.0429 29.2631 15.4807L28.6936 16.1133L27.7367 16.2513C27.2127 16.3203 26.4837 16.4584 26.1306 16.5504C25.7775 16.6424 25.4358 16.7229 25.3788 16.7229C25.3333 16.7229 25.356 16.4814 25.4472 16.1708C25.5383 15.8717 25.6978 15.1126 25.7889 14.48C25.9825 13.1688 26.0053 13.1343 27.3494 12.1106C28.3974 11.317 30.0377 10.4773 31.0173 10.2358C32.0083 9.99424 31.9741 9.98273 31.8602 10.5348Z" fill="#C05124"/>
<path d="M22.8221 6.86646C23.5967 8.35021 24.0751 10.3861 24.0751 12.2609C24.0751 14.4923 23.3802 17.0112 22.4006 18.3339L22.1159 18.7135L21.9108 18.4374C21.7969 18.2994 21.5463 17.8508 21.3527 17.4713C19.6327 14.0667 19.8491 9.15535 21.8311 6.19934C22.0589 5.86578 22.0931 5.85428 22.2639 6.00381C22.3665 6.09582 22.6171 6.48689 22.8221 6.86646ZM17.2069 18.334C18.4371 18.5871 19.7812 19.1047 20.5672 19.6108C21.2506 20.0478 21.2279 20.1168 20.1685 20.7149C18.5624 21.6121 16.9563 21.9687 14.587 21.9572C13.1404 21.9457 12.7075 21.8997 11.7621 21.6466C10.5888 21.3361 9.23332 20.7264 8.67517 20.2664L8.34483 19.9903L9.02828 19.5763C9.91677 19.0357 11.0331 18.6101 12.2519 18.3455C13.5846 18.0465 15.8514 18.0465 17.2069 18.334ZM32.5193 18.495C33.4875 18.7596 34.7974 19.3347 35.4923 19.8063L35.9137 20.1053L35.2872 20.4964C32.9521 22.0147 29.3412 22.4747 26.2543 21.6466C25.5709 21.4741 23.7028 20.6114 23.3041 20.3009C23.1332 20.1513 23.1104 20.0938 23.2244 19.9558C23.4749 19.6452 25.4456 18.7481 26.3682 18.5181C27.6896 18.1845 27.7921 18.1845 29.7855 18.219C31.2093 18.242 31.8016 18.2995 32.5193 18.495Z" fill="#FDDA70"/>
<defs>
<linearGradient id="paint0_linear_4239_272" x1="22.1591" y1="23.8268" x2="22.1591" y2="4.50867" gradientUnits="userSpaceOnUse">
<stop stop-color="#CF4309" stop-opacity="0.9"/>
<stop offset="0.585" stop-color="#FDDA70"/>
<stop offset="1" stop-color="#EE591D" stop-opacity="0.9"/>
</linearGradient>
</defs>
</svg>
